<?xml version="1.0" encoding="UTF-8"?>
<svg width="271px" height="92px" viewBox="0 0 271 92" version="1.1" xmlns="http://www.w3.org/2000/svg" xmlns:xlink="http://www.w3.org/1999/xlink">
    <!-- Generator: Sketch 54.1 (76490) - https://sketchapp.com -->
    <title>Combined Shape</title>
    <desc>Created with Sketch.</desc>
    <g id="dyposdagah" stroke="none" stroke-width="1" fill="none" fill-rule="evenodd">
        <path d="M65.9742931,6.55635726 L70.8735903,1.67561528 C71.9942518,0.559198114 73.6675706,0.208075385 75.1424755,0.779848957 L162.767965,34.7494558 C163.189971,34.9130542 163.65499,34.9286749 164.087024,34.7937652 L246.309002,9.11857569 C260.428704,8.12902069 268.360521,9.77526392 270.104453,14.0573054 C271.848385,18.3393468 267.043978,24.3938134 255.691232,32.2207049 L82.7366465,91.1910369 C70.2889403,90.9275824 59.4516157,90.2040405 50.2246726,89.0204111 C40.9977295,87.8367818 31.7707863,85.9864857 22.5438432,83.469523 L98.7166944,56.4175314 C99.7575726,56.0478744 100.301705,54.9044097 99.9320479,53.8635314 C99.8547809,53.6459635 99.7404253,53.4434173 99.5940484,53.2648682 L65.7039945,11.9261184 C64.3983441,10.3334991 64.5153119,8.00981281 65.9742931,6.55635726 Z M45.8657731,69.9857055 L19.8370394,79.2783868 L0.293780513,56.1681168 L7.14423277,50.5347086 L45.8657731,69.9857055 Z" id="ofokuzbrmp" fill="#FFFFFF"></path>
    </g>
</svg>